<svg xmlns="http://www.w3.org/2000/svg" viewBox="0 0 900 400" fill="none">
  <rect width="900" height="400" fill="#12140f" rx="8"/>
  <rect x="40" y="160" width="140" height="80" rx="8" stroke="#ffffff" stroke-width="1.5" fill="#141414"/>
  <text x="110" y="205" text-anchor="middle" fill="#f2f2ea" font-size="13" font-family="system-ui">Dashboard</text>
  <rect x="240" y="140" width="160" height="120" rx="8" stroke="#ffffff" stroke-width="1.5" fill="#141414"/>
  <text x="320" y="195" text-anchor="middle" fill="#f2f2ea" font-size="13" font-family="system-ui">Orchestrator</text>
  <rect x="460" y="80" width="120" height="60" rx="8" stroke="#ffffff" stroke-width="1" fill="#141414"/>
  <rect x="460" y="170" width="120" height="60" rx="8" stroke="#ffffff" stroke-width="1" fill="#141414"/>
  <rect x="460" y="260" width="120" height="60" rx="8" stroke="#ffffff" stroke-width="1" fill="#141414"/>
  <text x="520" y="115" text-anchor="middle" fill="#8a8d82" font-size="11" font-family="system-ui">Agent A</text>
  <text x="520" y="205" text-anchor="middle" fill="#8a8d82" font-size="11" font-family="system-ui">Agent B</text>
  <text x="520" y="295" text-anchor="middle" fill="#8a8d82" font-size="11" font-family="system-ui">Agent C</text>
  <rect x="660" y="160" width="140" height="80" rx="8" stroke="#ffffff" stroke-width="1.5" fill="#141414"/>
  <text x="730" y="205" text-anchor="middle" fill="#f2f2ea" font-size="13" font-family="system-ui">PostgreSQL</text>
  <line x1="180" y1="200" x2="240" y2="200" stroke="#ffffff" stroke-width="1" marker-end="url(#arrow)"/>
  <line x1="400" y1="200" x2="460" y2="110" stroke="#ffffff" stroke-width="0.8" opacity="0.6"/>
  <line x1="400" y1="200" x2="460" y2="200" stroke="#ffffff" stroke-width="0.8" opacity="0.6"/>
  <line x1="400" y1="200" x2="460" y2="290" stroke="#ffffff" stroke-width="0.8" opacity="0.6"/>
  <line x1="580" y1="200" x2="660" y2="200" stroke="#ffffff" stroke-width="1"/>
  <defs>
    <marker id="arrow" markerWidth="8" markerHeight="8" refX="6" refY="3" orient="auto">
      <path d="M0,0 L6,3 L0,6" fill="#ffffff"/>
    </marker>
  </defs>
</svg>
