<svg xmlns="http://www.w3.org/2000/svg" viewBox="0 0 800 450" fill="none">
  <rect width="800" height="450" fill="#0b0d0a"/>
  <g opacity="0.15" stroke="#ffffff" stroke-width="0.5">
    <line x1="710" y1="79" x2="37" y2="7"/>
<line x1="337" y1="128" x2="322" y2="413"/>
<line x1="322" y1="57" x2="228" y2="230"/>
<line x1="89" y1="322" x2="277" y2="379"/>
<line x1="618" y1="324" x2="208" y2="154"/>
<line x1="743" y1="67" x2="693" y2="79"/>
<line x1="776" y1="315" x2="653" y2="366"/>
<line x1="101" y1="1" x2="312" y2="440"/>
<line x1="665" y1="405" x2="491" y2="327"/>
<line x1="30" y1="348" x2="739" y2="173"/>
<line x1="41" y1="48" x2="769" y2="126"/>
<line x1="643" y1="267" x2="440" y2="277"/>
<line x1="513" y1="146" x2="696" y2="340"/>
<line x1="783" y1="74" x2="10" y2="157"/>
<line x1="206" y1="15" x2="764" y2="85"/>
<line x1="172" y1="365" x2="427" y2="143"/>
  </g>
  <g fill="#ffffff">
    <circle cx="710" cy="79" r="2" opacity="0.4"/>
<circle cx="37" cy="7" r="2" opacity="0.4"/>
<circle cx="337" cy="128" r="2" opacity="0.4"/>
<circle cx="322" cy="413" r="2" opacity="0.4"/>
<circle cx="322" cy="57" r="2" opacity="0.4"/>
<circle cx="228" cy="230" r="2" opacity="0.4"/>
<circle cx="89" cy="322" r="2" opacity="0.4"/>
<circle cx="277" cy="379" r="2" opacity="0.4"/>
<circle cx="618" cy="324" r="2" opacity="0.4"/>
<circle cx="208" cy="154" r="2" opacity="0.4"/>
<circle cx="743" cy="67" r="2" opacity="0.4"/>
<circle cx="693" cy="79" r="2" opacity="0.4"/>
<circle cx="776" cy="315" r="2" opacity="0.4"/>
<circle cx="653" cy="366" r="2" opacity="0.4"/>
<circle cx="101" cy="1" r="2" opacity="0.4"/>
<circle cx="312" cy="440" r="2" opacity="0.4"/>
<circle cx="665" cy="405" r="2" opacity="0.4"/>
<circle cx="491" cy="327" r="2" opacity="0.4"/>
<circle cx="30" cy="348" r="2" opacity="0.4"/>
<circle cx="739" cy="173" r="2" opacity="0.4"/>
<circle cx="41" cy="48" r="2" opacity="0.4"/>
  </g>
  <circle cx="400" cy="225" r="80" stroke="#ffffff" stroke-width="1" opacity="0.3" fill="none"/>
  <circle cx="400" cy="225" r="120" stroke="#ffffff" stroke-width="0.5" opacity="0.15" fill="none"/>
</svg>
